<svg width="16" height="14" viewBox="0 0 16 14" fill="none" xmlns="http://www.w3.org/2000/svg">
<g clip-path="url(#clip0_2002_196)">
<path d="M1.18738 6.79813H13.198L8.59896 2.41889C8.35814 2.18957 8.3488 1.80858 8.57818 1.56783C8.80726 1.32738 9.18836 1.31775 9.42948 1.54707L14.6818 6.54865C14.9091 6.77615 15.0346 7.0783 15.0346 7.40001C15.0346 7.7214 14.9091 8.02385 14.6712 8.26128L9.42918 13.2527C9.31269 13.3636 9.16338 13.4187 9.01407 13.4187C8.85513 13.4187 8.69619 13.3561 8.57789 13.2319C8.34851 12.9912 8.35784 12.6105 8.59866 12.3812L13.217 8.00188H1.18738C0.855047 8.00188 0.585327 7.73224 0.585327 7.40001C0.585327 7.06777 0.855047 6.79813 1.18738 6.79813Z" fill="#1A1A1A"/>
</g>
<defs>
<clipPath id="clip0_2002_196">
<rect width="15" height="12.84" fill="white" transform="translate(0.309937 0.97998)"/>
</clipPath>
</defs>
</svg>
